<svg width="19" height="20" viewBox="0 0 19 20" fill="none" xmlns="http://www.w3.org/2000/svg">
<path d="M12.6398 17.558C11.6699 17.9632 10.6141 18.1964 9.49693 18.1964C7.54492 18.1964 5.76479 17.4967 4.36523 16.3549C4.36523 16.3549 4.47573 16.4286 4.54939 16.49C6.09626 13.1261 10.8719 11.4565 10.8719 11.4565C10.8842 11.4565 10.9088 11.4442 10.921 11.4442C12.0505 14.3906 12.517 16.846 12.6398 17.558ZM10.3686 10.106C10.2704 10.1429 10.1599 10.1674 10.0494 10.2042C10.0494 10.2042 5.7034 11.6038 3.50586 15.5201C2.22907 14.096 1.44336 12.2054 1.44336 10.1429C1.44336 10.0569 1.44336 9.97098 1.45564 9.88504C1.59068 9.88504 5.56836 9.98326 9.71791 8.7433C9.95117 9.19754 10.1722 9.65179 10.3686 10.106ZM9.05497 7.50335C5.18778 8.52232 1.82394 8.48549 1.61523 8.48549C2.14314 5.9933 3.81278 3.91853 6.05943 2.86272C6.16992 3.01004 7.65541 5.02344 9.05497 7.50335ZM17.4523 11.4196C17.084 13.6663 15.8072 15.606 14.0025 16.8214C13.9166 16.3426 13.4869 13.9732 12.4311 11.0636C15.0338 10.6585 17.2804 11.3705 17.4523 11.4196ZM7.56948 2.32254C7.5572 2.32254 7.54492 2.33482 7.54492 2.33482C7.5572 2.32254 7.5572 2.32254 7.56948 2.32254ZM14.8128 4.10268C14.7882 4.13951 13.6465 5.88281 10.6141 7.01228C9.23912 4.48326 7.7168 2.48214 7.59403 2.32254C8.20787 2.17522 8.84626 2.08928 9.49693 2.08928C11.5349 2.08928 13.4009 2.85045 14.8128 4.10268ZM17.5505 10.0569C17.4523 10.0446 14.7146 9.44308 11.94 9.79911C11.8786 9.66406 11.8295 9.51674 11.7681 9.3817C11.5963 8.98884 11.4121 8.59598 11.228 8.2154C14.4076 6.91406 15.6967 5.04799 15.7213 5.02344C16.8507 6.39844 17.5259 8.15402 17.5505 10.0569ZM18.9255 10.1429C18.9255 4.9375 14.7023 0.714285 9.49693 0.714285C4.29157 0.714285 0.0683594 4.9375 0.0683594 10.1429C0.0683594 15.3482 4.29157 19.5714 9.49693 19.5714C14.7023 19.5714 18.9255 15.3482 18.9255 10.1429Z" fill="#FF6F32"/>
</svg>
