<svg width="21" height="23" viewBox="0 0 21 23" fill="none" xmlns="http://www.w3.org/2000/svg">
<path d="M6.80469 18.7299C6.80469 19.798 5.8471 20.019 4.95089 20.019C4.10379 20.019 2.83929 19.8839 2.83929 18.779C2.83929 17.6864 3.90737 17.5022 4.77902 17.5022C5.61384 17.5022 6.80469 17.6496 6.80469 18.7299ZM6.08036 9.46094C6.08036 10.4554 5.6875 11.1429 4.61942 11.1429C3.53906 11.1429 3.0971 10.5045 3.0971 9.48549C3.0971 8.45424 3.48996 7.70536 4.61942 7.70536C5.63839 7.70536 6.08036 8.54018 6.08036 9.46094ZM9.38281 5.48326C8.53571 5.81473 7.62723 6.06027 6.70647 6.06027C6.04353 5.67969 5.28237 5.48326 4.52121 5.48326C2.25 5.48326 0.469866 7.16518 0.469866 9.46094C0.469866 10.7009 1.28013 12.4074 2.52009 12.8248V12.8739C1.8817 13.1562 1.74665 13.9297 1.74665 14.5558C1.74665 15.2187 2.00446 15.7589 2.5692 16.1027V16.1518C1.23103 16.5937 0.334821 17.4408 0.334821 18.9141C0.334821 21.4431 2.72879 22.1429 4.82813 22.1429C7.3817 22.1429 9.2846 21.2221 9.2846 18.4107C9.2846 14.9487 4.32478 16.2254 4.32478 14.3471C4.32478 13.6842 4.6808 13.4263 5.29464 13.3036C7.33259 12.923 8.60938 11.3393 8.60938 9.26451C8.60938 8.90848 8.53571 8.56473 8.41295 8.23326C8.74442 8.1596 9.06362 8.07366 9.38281 7.96317V5.48326ZM13.2868 16.2991C13.2377 15.7467 13.2377 15.2065 13.2377 14.654V7.12835C13.2377 6.625 13.2254 6.10938 13.2868 5.60603H10.5614C10.6228 6.12165 10.6105 6.64955 10.6105 7.17745V14.654C10.6105 15.2065 10.6105 15.7467 10.5614 16.2991H13.2868ZM20.6652 13.5737C20.2723 13.8437 19.8058 13.9788 19.327 13.9788C18.4185 13.9788 18.2589 13.0949 18.2589 12.3705V7.88951H19.3025C19.6462 7.88951 20.0022 7.93862 20.3583 7.93862V5.60603H18.2589C18.2589 4.9308 18.2344 4.25558 18.3326 3.58036H15.5458C15.6071 3.93638 15.6194 4.30469 15.6194 4.67299V5.60603H14.4408V7.93862C14.6741 7.90178 14.9196 7.86495 15.1652 7.86495C15.3125 7.86495 15.4598 7.88951 15.6194 7.88951V7.93862H15.5949V12.2478C15.5949 14.3839 15.9018 16.4587 18.529 16.4587C19.2656 16.4587 20.0145 16.3359 20.6652 15.9799V13.5737ZM13.5938 1.94754C13.5938 1.02678 12.9062 0.142856 11.9364 0.142856C10.9542 0.142856 10.2422 1.00223 10.2422 1.94754C10.2422 2.88058 10.9665 3.72768 11.9364 3.72768C12.8817 3.72768 13.5938 2.8683 13.5938 1.94754Z" fill="#FF6F32"/>
</svg>
