<svg width="62" height="62" viewBox="0 0 62 62" fill="none" xmlns="http://www.w3.org/2000/svg">
<path d="M39.1316 24.0726L28.718 35.7373L23.4335 30.4534C23.072 30.0919 22.4866 30.0919 22.125 30.4534C21.7635 30.8149 21.7635 31.4004 22.125 31.7619L28.1017 37.7385C28.2751 37.9125 28.5107 38.0094 28.7563 38.0094C28.7649 38.0094 28.7735 38.0094 28.7822 38.0088C29.037 38.0014 29.2769 37.8903 29.4466 37.7003L40.5128 25.3052C40.8534 24.924 40.8201 24.3391 40.4388 23.9986C40.0563 23.6587 39.4727 23.692 39.1316 24.0726Z" fill="#FF6F32"/>
<path d="M56.8025 30.8458C56.8198 30.7754 56.8315 30.7026 56.8315 30.6268C56.8315 28.1603 54.2731 26.8858 52.0152 25.7605C50.4125 24.9622 48.7561 24.1362 48.315 23.0955C47.8658 22.0331 48.5 20.3021 49.112 18.6271C49.9658 16.2933 50.848 13.8806 49.22 12.2538C47.6234 10.6572 45.289 11.1976 43.0305 11.7226C41.4499 12.0891 39.8145 12.4672 38.7256 12.007C37.6627 11.5573 36.7793 10.1631 35.9248 8.81324C34.6855 6.85824 33.282 4.64166 30.8458 4.64166C28.4053 4.64166 27.0283 6.90636 25.8142 8.90517C24.9715 10.2926 24.0998 11.7263 23.0381 12.1754C21.9529 12.635 20.3002 12.2186 18.7024 11.817C16.426 11.2457 14.0725 10.6523 12.4722 12.2544C10.8552 13.8707 11.6387 16.2958 12.3975 18.6419C12.9392 20.3156 13.4987 22.0467 13.0459 23.1183C12.6042 24.1633 11.0212 24.982 9.48939 25.7741C7.3197 26.8957 4.86006 28.1671 4.86006 30.628C4.86006 30.7045 4.8724 30.7779 4.88967 30.8489C4.8724 30.9192 4.86068 30.992 4.86068 31.0679C4.86068 33.5287 7.32032 34.8002 9.49063 35.9217C11.0212 36.7132 12.6048 37.5319 13.0465 38.577C13.4993 39.6485 12.9398 41.3796 12.3981 43.0539C11.64 45.3994 10.8559 47.8239 12.4722 49.4408C14.0737 51.043 16.4272 50.4513 18.703 49.8782C20.3015 49.4772 21.9548 49.062 23.0393 49.521C24.1004 49.9695 24.9721 51.4032 25.8148 52.7901C27.0295 54.7882 28.4059 57.053 30.8464 57.053C33.2826 57.053 34.6867 54.8364 35.9255 52.8814C36.7805 51.5316 37.6639 50.1373 38.725 49.6876C39.8182 49.2261 41.4505 49.6049 43.0305 49.972C45.2878 50.4958 47.6234 51.0386 49.2187 49.4414C50.8486 47.814 49.9658 45.4006 49.112 43.0675C48.4994 41.3925 47.8658 39.6615 48.3143 38.6004C48.7561 37.559 50.4125 36.733 52.0152 35.9347C54.2725 34.8101 56.8315 33.5349 56.8315 31.0685C56.8321 30.9901 56.8198 30.9167 56.8025 30.8458ZM51.1904 34.2758C49.2872 35.224 47.3193 36.2049 46.6104 37.8774C45.8781 39.6109 46.6388 41.6905 47.3742 43.701C48.0577 45.5709 48.7042 47.3384 47.9103 48.1305C47.041 49.0016 45.2952 48.5963 43.4487 48.1681C41.5807 47.7351 39.6492 47.2866 38.0045 47.9818C36.4097 48.6567 35.369 50.3002 34.3622 51.8894C33.2832 53.5921 32.2641 55.2003 30.8464 55.2003C29.4466 55.2003 28.4509 53.5618 27.396 51.8271C26.4009 50.1891 25.3713 48.4951 23.7599 47.8146C22.1035 47.1126 20.146 47.6049 18.2508 48.0818C16.3939 48.5475 14.64 48.9905 13.7807 48.1305C12.9645 47.3149 13.5444 45.5209 14.1582 43.6215C14.8041 41.6257 15.471 39.5615 14.7504 37.8545C14.0484 36.1938 12.1631 35.2191 10.3401 34.2758C8.47395 33.3116 6.71081 32.4004 6.71081 31.066C6.71081 30.9895 6.69847 30.9161 6.6812 30.8445C6.69847 30.7742 6.71019 30.7014 6.71019 30.6255C6.71019 29.2911 8.47272 28.38 10.3389 27.4157C12.1625 26.4731 14.0484 25.4983 14.7498 23.8364C15.4704 22.13 14.8035 20.0664 14.1576 18.0701C13.5438 16.1706 12.9632 14.3766 13.7807 13.5604C14.6382 12.701 16.3921 13.1428 18.2502 13.6098C20.1441 14.0854 22.1016 14.5796 23.7586 13.8775C25.37 13.1964 26.3997 11.5024 27.396 9.86447C28.4503 8.12909 29.446 6.49056 30.8458 6.49056C32.2634 6.49056 33.2826 8.09886 34.361 9.80216C35.3684 11.3913 36.4091 13.0348 38.0045 13.7103C39.6492 14.4056 41.5807 13.9571 43.4487 13.5234C45.2952 13.0953 47.0404 12.6899 47.9109 13.5616C48.7036 14.3531 48.0571 16.12 47.3736 17.9905C46.6382 20.0016 45.8775 22.0812 46.6104 23.8154C47.318 25.4872 49.2866 26.4681 51.1898 27.4163C53.1392 28.3874 54.9807 29.3053 54.9807 30.6255C54.9807 30.702 54.9931 30.7754 55.0103 30.8464C54.9931 30.9167 54.9813 30.9895 54.9813 31.0654C54.9813 32.3874 53.1399 33.3048 51.1904 34.2758Z" fill="#FF6F32"/>
</svg>
