<svg width="17" height="19" viewBox="0 0 17 19" fill="none" xmlns="http://www.w3.org/2000/svg">
<path d="M6.04115 18.6173C7.03548 18.8669 8.07832 19 9.15383 19C10.3086 19 12.1903 18.6465 12.1903 18.6465L12.1744 17.7856C12.1744 17.7856 12.1895 16.1048 12.1895 14.5073C12.1895 13.3925 11.7937 12.6631 11.3492 12.2943C14.1064 11.9984 17 10.9881 17 6.39712C17 5.09259 16.521 4.02563 15.7277 3.19029C15.8549 2.88794 16.2797 1.6728 15.6044 0.0276743C15.6044 0.0276743 14.5673 -0.293558 12.2044 1.25285C11.2157 0.987787 10.1568 0.855135 9.10606 0.850594C8.05356 0.855135 6.99464 0.987787 6.00749 1.25285C3.64309 -0.293558 2.60397 0.0276743 2.60397 0.0276743C1.93069 1.67304 2.35545 2.88817 2.48268 3.19029C1.69108 4.02563 1.20889 5.09235 1.20889 6.39712C1.20889 10.9766 4.09805 12.002 6.84637 12.3036C6.49289 12.6024 6.17309 13.1289 6.06071 13.9011C5.3555 14.2071 3.56289 14.7343 2.45892 12.9083C2.45892 12.9083 1.80519 11.7613 0.56334 11.6767C0.56334 11.6767 -0.645344 11.6616 0.47819 12.403C0.47819 12.403 1.28959 12.7706 1.85222 14.1512C1.85222 14.1512 2.57872 16.4753 6.02135 15.7533C6.02729 16.7507 6.03818 17.5021 6.03818 17.7858" fill="#FF6F32"/>
</svg>
