<svg width="20" height="20" viewBox="0 0 20 20" fill="none" xmlns="http://www.w3.org/2000/svg">
<path d="M10.0166 4.81836C7.13819 4.81836 4.79599 7.12639 4.79599 9.96361C4.79599 12.8005 7.13787 15.1085 10.0166 15.1085C12.8949 15.1085 15.2371 12.8005 15.2371 9.96361C15.2371 7.12639 12.8949 4.81836 10.0166 4.81836ZM10.0166 13.2143C8.1863 13.2143 6.69756 11.7558 6.69756 9.96361C6.69756 8.17108 8.1863 6.71288 10.0166 6.71288C11.8465 6.71288 13.3355 8.17108 13.3355 9.96361C13.3355 11.7561 11.8468 13.2143 10.0166 13.2143Z" fill="#FF6F32"/>
<path d="M14.2433 0H5.75672C2.58264 0 0 2.5723 0 5.7344V14.2656C0 17.4274 2.58231 20 5.75672 20H14.2433C17.4177 20 20 17.4274 20 14.2656V5.7344C20 2.57262 17.4177 0 14.2433 0ZM18.0948 14.2656C18.0948 16.3811 16.367 18.1022 14.2433 18.1022H5.75672C3.63303 18.1022 1.90517 16.3811 1.90517 14.2656V5.7344C1.90517 3.61894 3.63303 1.89778 5.75672 1.89778H14.2433C16.367 1.89778 18.0948 3.61894 18.0948 5.7344V14.2656Z" fill="#FF6F32"/>
<path d="M15.33 5.83145C16.0084 5.83145 16.5584 5.28363 16.5584 4.60786C16.5584 3.9321 16.0084 3.38428 15.33 3.38428C14.6516 3.38428 14.1017 3.9321 14.1017 4.60786C14.1017 5.28363 14.6516 5.83145 15.33 5.83145Z" fill="#FF6F32"/>
</svg>
