<svg width="23" height="15" viewBox="0 0 23 15" fill="none" xmlns="http://www.w3.org/2000/svg">
<path d="M16.0526 7.51591L22.9999 14.3271V0.705078L16.0526 7.51591Z" fill="#898989"/>
<path d="M12.1675 9.98042L22.3426 0.00471288C22.3345 0.00435035 22.3274 0 22.3193 0H0.710022L10.8892 9.9797C11.2283 10.3132 11.8284 10.3129 12.1675 9.98042Z" fill="#898989"/>
<path d="M12.8538 10.652C12.5006 10.9975 12.0307 11.1885 11.5289 11.1885C11.0267 11.1885 10.556 10.9982 10.2032 10.652L7.60629 8.10596L0.592773 14.982C0.623095 14.986 0.650089 14.9994 0.681519 14.9994H22.3148L15.3675 8.18825L12.8538 10.652Z" fill="#898989"/>
<path d="M0.0029582 0.652344C0.0029582 0.657782 0 0.662132 0 0.667207V14.2175L6.9196 7.43345L0.0029582 0.652344Z" fill="#898989"/>
</svg>
