<svg width="67" height="54" viewBox="0 0 67 54" fill="none" xmlns="http://www.w3.org/2000/svg">
<path d="M47.9884 38.4341C47.9848 38.4341 47.9805 38.4341 47.9769 38.4341C47.5995 38.4298 47.2518 38.2299 47.0584 37.906L36.7707 20.6287C36.7418 20.5804 36.7173 20.5306 36.6964 20.4787C35.4135 18.3725 34.7367 15.959 34.7367 13.4848C34.7497 6.04504 40.8077 0 48.2439 0C48.2496 0 48.2547 0 48.2605 0C51.8703 0.00505076 55.2594 1.41493 57.8035 3.96918C60.3462 6.52125 61.7431 9.91392 61.7381 13.5209C61.7381 15.9582 61.0641 18.3588 59.787 20.4779C59.7625 20.5472 59.73 20.6136 59.6903 20.6778L48.907 37.9262C48.7078 38.2415 48.3608 38.4341 47.9884 38.4341ZM38.7304 19.6886L48.0108 35.2745L57.7342 19.7218C57.7588 19.6554 57.7898 19.5905 57.828 19.5291C58.9695 17.7058 59.5727 15.6278 59.5727 13.5202C59.5727 13.5194 59.5727 13.5194 59.5727 13.5187C59.5778 10.4883 58.4046 7.63964 56.2695 5.49595C54.1338 3.35226 51.288 2.16894 48.2576 2.16389C48.2532 2.16389 48.2482 2.16389 48.2431 2.16389C41.9982 2.16389 36.9114 7.2399 36.9013 13.4862C36.9013 15.6177 37.5009 17.6971 38.6344 19.4981C38.6734 19.558 38.7052 19.6222 38.7304 19.6886Z" fill="#FF6F32"/>
<path d="M48.2475 18.5551C48.2439 18.5551 48.2403 18.5551 48.2359 18.5551C46.712 18.5551 45.2769 17.9598 44.1982 16.8789C43.1181 15.7966 42.525 14.3593 42.5278 12.8304C42.5293 11.3065 43.1253 9.87282 44.2061 8.79484C45.2856 7.71903 46.7185 7.12665 48.2431 7.12665C48.2446 7.12665 48.2467 7.12665 48.2489 7.12665C51.3984 7.13026 53.9592 9.69748 53.9563 12.8499C53.9548 14.3759 53.3588 15.8103 52.278 16.8883C51.1993 17.9634 49.7685 18.5551 48.2475 18.5551ZM48.2424 9.29126C47.2958 9.29126 46.4047 9.65924 45.7344 10.3281C45.0633 10.997 44.6932 11.8874 44.6925 12.834C44.691 13.7843 45.0597 14.6775 45.7307 15.35C46.4003 16.021 47.2914 16.3905 48.2381 16.3905C48.2403 16.3905 48.2424 16.3905 48.2453 16.3905C49.192 16.3905 50.0802 16.0232 50.7498 15.3558C51.4208 14.6869 51.7909 13.7958 51.7917 12.8484C51.7931 10.8902 50.2028 9.29415 48.246 9.29198C48.2453 9.29126 48.2439 9.29126 48.2424 9.29126ZM52.874 12.8492H52.8812H52.874Z" fill="#FF6F32"/>
<path d="M65.9179 53.787H1.08206C0.718403 53.787 0.379281 53.6044 0.178693 53.3007C-0.0211726 52.9976 -0.0558065 52.6138 0.0870579 52.279L11.8806 24.6859C12.0509 24.2877 12.4427 24.0286 12.8756 24.0286H40.7038C41.302 24.0286 41.7861 24.5128 41.7861 25.1109C41.7861 25.7091 41.302 26.1932 40.7038 26.1932H13.5899L2.72139 51.6216H64.2779L53.7449 26.9812C53.5097 26.4313 53.7651 25.7957 54.3149 25.5604C54.8625 25.326 55.5004 25.5799 55.7356 26.1305L66.9129 52.2782C67.0558 52.613 67.0212 52.9969 66.8213 53.2999C66.6207 53.6044 66.2816 53.787 65.9179 53.787Z" fill="#FF6F32"/>
<path d="M48.1162 53.5929C47.5736 53.5929 47.1053 53.1859 47.0426 52.6332C47.0361 52.5798 46.3448 47.2549 38.8892 45.9901C38.1958 45.8724 37.0897 45.7649 35.8082 45.6415C28.7523 44.959 22.3162 44.0729 21.0752 40.7733C20.2742 38.6448 21.4446 37.0221 22.384 35.7182C23.4129 34.291 23.7521 33.6676 23.2268 32.7722C22.8941 32.2051 21.8349 31.7433 20.8103 31.2967C18.8045 30.4222 16.0569 29.2244 16.0424 25.9414C16.0395 25.3433 16.5223 24.857 17.1197 24.8541C17.1211 24.8541 17.1233 24.8541 17.1247 24.8541C17.7207 24.8541 18.2042 25.3353 18.207 25.9313C18.215 27.6774 19.5231 28.3737 21.6762 29.3124C23.0183 29.8976 24.4058 30.5023 25.0948 31.6776C26.3828 33.874 25.0869 35.6721 24.141 36.9845C23.2535 38.2155 22.7282 39.02 23.102 40.0114C23.9714 42.3225 32.1075 43.109 36.0175 43.4878C37.34 43.6155 38.4822 43.7259 39.2514 43.8565C48.2937 45.3912 49.161 52.1036 49.1935 52.3886C49.2613 52.9825 48.8349 53.5186 48.241 53.5864C48.1992 53.5907 48.1573 53.5929 48.1162 53.5929Z" fill="#FF6F32"/>
</svg>
