<svg width="41" height="41" viewBox="0 0 41 41" fill="none" xmlns="http://www.w3.org/2000/svg">
<path d="M16.1437 34.988C17.7677 35.8975 19.3673 36.3543 20.8573 36.3543C22.1046 36.3538 23.2751 36.0335 24.3169 35.3905L28.157 33.0216C28.2955 32.9362 28.3943 32.7998 28.4319 32.6412C28.4695 32.4831 28.4421 32.3164 28.3568 32.1779L25.0282 26.7833C24.9428 26.6452 24.806 26.5463 24.6479 26.5087C24.4885 26.4716 24.3227 26.4985 24.1846 26.5839L20.3155 28.972C19.7207 29.3388 18.9575 29.4561 18.2233 29.2947C17.4891 29.1329 16.8624 28.7072 16.5037 28.1254L11.2451 19.6032C10.4848 18.371 10.868 16.7498 12.0994 15.9895C12.0994 15.9895 12.0998 15.9895 12.0998 15.9891L16.1155 13.5099C16.4036 13.3322 16.4926 12.9547 16.3149 12.6667L12.986 7.27323C12.8083 6.98519 12.4303 6.8949 12.1427 7.07344L8.13028 9.55014C3.6582 12.3104 3.81509 19.5562 8.51269 27.171C10.6662 30.6626 13.3766 33.4388 16.1437 34.988ZM8.77457 10.5928L12.2653 8.43845L14.9507 12.7888L11.4563 14.946C11.4555 14.9464 11.4551 14.9468 11.4547 14.9472C9.6497 16.063 9.08753 18.4396 10.2025 20.2463L15.461 28.7681C15.9926 29.6306 16.9036 30.2585 17.9602 30.4914C19.0024 30.7198 20.0961 30.547 20.9594 30.0142L24.3067 27.9481L26.9918 32.2993L23.673 34.3466C21.2495 35.8419 18.5665 34.939 16.7427 33.918C14.1545 32.4684 11.6018 29.8438 9.55574 26.5271C5.23728 19.5268 4.91615 12.9743 8.77457 10.5928Z" fill="white"/>
<path d="M20.2563 13.7081C22.2395 13.8253 23.9946 14.8443 25.0724 16.5043C26.1028 18.0862 26.3508 20.0248 25.7522 21.8233C25.6452 22.1445 25.8188 22.4917 26.14 22.598C26.2041 22.6196 26.2691 22.6294 26.3336 22.6294C26.5906 22.6294 26.8296 22.4672 26.915 22.2102C27.6324 20.0555 27.335 17.7316 26.0999 15.8358C24.8277 13.8756 22.6697 12.6225 20.3286 12.484C19.9875 12.4697 19.7007 12.7218 19.6807 13.0597C19.6606 13.398 19.9184 13.688 20.2563 13.7081Z" fill="white"/>
<path d="M21.1143 9.15914C24.3255 9.52807 27.176 11.2902 28.9349 13.9928C30.639 16.6129 31.1219 19.8389 30.2594 22.8439C30.1659 23.1695 30.3538 23.5087 30.679 23.6018C30.7358 23.6181 30.7922 23.6259 30.8486 23.6259C31.1145 23.6259 31.3601 23.4506 31.4369 23.1822C32.3974 19.8357 31.8598 16.2424 29.962 13.3244C28.0034 10.3146 24.8297 8.35264 21.254 7.94163C20.9243 7.90281 20.6142 8.14427 20.5754 8.48052C20.5366 8.81677 20.7776 9.12033 21.1143 9.15914Z" fill="white"/>
<path d="M21.9522 5.15279C26.2172 5.74561 30.0094 8.15613 32.357 11.7666C34.6567 15.2994 35.3464 19.6629 34.2498 23.7379C34.1616 24.0647 34.3556 24.401 34.6825 24.4888C34.7356 24.5031 34.7895 24.51 34.8422 24.51C35.1123 24.51 35.3603 24.3303 35.4334 24.0565C36.6207 19.6457 35.8738 14.9223 33.3845 11.0982C30.8433 7.19029 26.7381 4.5808 22.1218 3.93895C21.788 3.89442 21.4767 4.12607 21.4305 4.4615C21.3835 4.79652 21.6172 5.10621 21.9522 5.15279Z" fill="white"/>
</svg>
