<svg width="20" height="20" viewBox="0 0 20 20" fill="none" xmlns="http://www.w3.org/2000/svg">
<path fill-rule="evenodd" clip-rule="evenodd" d="M10.974 18.5415C13.0897 17.0979 17.9166 13.3051 17.9166 8.75016C17.9166 4.37791 14.3722 0.833496 9.99998 0.833496C5.62773 0.833496 2.08331 4.37791 2.08331 8.75016C2.08331 13.3051 6.91023 17.0979 9.02594 18.5415C9.61757 18.9452 10.3824 18.9452 10.974 18.5415ZM9.99998 11.2502C11.3807 11.2502 12.5 10.1309 12.5 8.75016C12.5 7.36945 11.3807 6.25016 9.99998 6.25016C8.61927 6.25016 7.49998 7.36945 7.49998 8.75016C7.49998 10.1309 8.61927 11.2502 9.99998 11.2502Z" fill="#898989"/>
</svg>
