<svg width="55" height="55" viewBox="0 0 55 55" fill="none" xmlns="http://www.w3.org/2000/svg">
<path d="M36.2903 19.3038L18.1139 33.7721C17.7387 34.0709 17.6767 34.6175 17.9749 34.9927C18.1463 35.2081 18.3993 35.3204 18.6553 35.3204C18.8446 35.3204 19.0357 35.2591 19.1955 35.1317L37.3719 20.6634C37.7471 20.3646 37.8091 19.818 37.5109 19.4428C37.2127 19.0676 36.6661 19.005 36.2903 19.3038Z" fill="#FF6F32"/>
<path d="M20.3269 24.7884C21.1086 25.3593 22.0304 25.6587 22.9806 25.6587C23.2134 25.6587 23.4485 25.6408 23.683 25.6043C26.1416 25.2215 27.8312 22.91 27.4496 20.4515C27.0669 17.9923 24.7542 16.3027 22.2968 16.6854C19.8377 17.0676 18.148 19.3791 18.5308 21.8377C18.7155 23.0287 19.353 24.0774 20.3269 24.7884ZM22.5632 18.4017C22.7068 18.3791 22.8498 18.3681 22.9911 18.3681C24.335 18.3681 25.5197 19.3496 25.7328 20.7184C25.9679 22.2308 24.9285 23.6529 23.4161 23.888C22.6819 24.0021 21.95 23.8238 21.3518 23.386C20.7531 22.9488 20.3605 22.3038 20.247 21.5713C20.0119 20.0589 21.0507 18.6368 22.5632 18.4017Z" fill="#FF6F32"/>
<path d="M32.5387 28.7426C30.0495 28.7426 28.024 30.7675 28.024 33.2562C28.024 35.7449 30.0495 37.7692 32.5387 37.7692C35.028 37.7692 37.0529 35.7443 37.0529 33.2562C37.0535 30.7675 35.028 28.7426 32.5387 28.7426ZM32.5387 36.0321C31.0072 36.0321 29.7611 34.7866 29.7611 33.2562C29.7611 31.7252 31.0072 30.4797 32.5387 30.4797C34.0703 30.4797 35.3158 31.7252 35.3158 33.2562C35.3164 34.7871 34.0703 36.0321 32.5387 36.0321Z" fill="#FF6F32"/>
<path d="M49.9456 22.4317C48.2242 21.5742 46.4448 20.6871 45.9596 19.5406C45.4645 18.3704 46.1454 16.5082 46.8038 14.7074C47.6978 12.2616 48.6231 9.73296 46.9445 8.0555C45.2931 6.40352 42.8438 6.97155 40.4744 7.52164C38.7778 7.91538 37.0234 8.32244 35.8305 7.8181C34.669 7.32592 33.7194 5.82796 32.801 4.37922C31.5 2.32655 30.0257 0 27.5012 0C24.9719 0 23.5261 2.37809 22.2505 4.4765C21.3455 5.9652 20.4092 7.50484 19.2482 7.99586C18.0571 8.49962 16.2824 8.05261 14.5656 7.62123C12.1782 7.02077 9.7098 6.40063 8.05608 8.0555C6.38615 9.72428 7.20838 12.2674 8.00397 14.7271C8.5859 16.5256 9.18693 18.3854 8.68839 19.5644C8.20316 20.7137 6.50196 21.5927 4.85693 22.4433C2.58017 23.6205 0 24.9546 0 27.5C0 30.0373 2.48 31.4247 4.66816 32.6488C6.2356 33.5254 7.85632 34.4322 8.34502 35.5868C8.84588 36.7709 8.32128 38.5908 7.81463 40.3505C7.11573 42.7755 6.3931 45.2838 8.05608 46.9457C9.77002 48.659 12.5175 47.2329 15.1747 45.8519C17.1058 44.849 19.2951 43.7106 20.4335 44.1929C21.5447 44.6631 22.2893 46.959 22.9465 48.9844C23.9054 51.9416 24.8978 55 27.5017 55C30.1085 55 31.068 51.9387 31.9956 48.9781C32.6325 46.9462 33.3546 44.6428 34.4646 44.1738C35.603 43.6927 37.8172 44.8339 39.7703 45.8414C42.4558 47.2271 45.2323 48.659 46.9451 46.9462C48.6249 45.267 47.7048 42.7737 46.8154 40.3621C46.1617 38.5891 45.4853 36.7558 45.9793 35.5868C46.4651 34.4385 48.2386 33.526 49.9537 32.6435C52.4349 31.3668 55.0006 30.0472 55.0006 27.5C54.9988 24.9499 52.4297 23.6697 49.9456 22.4317ZM49.1576 31.0993C47.1674 32.123 45.1095 33.182 44.3782 34.911C43.6168 36.713 44.4141 38.8739 45.1848 40.9637C45.9173 42.9497 46.6092 44.8252 45.7158 45.7181C44.9005 46.534 42.5971 45.3464 40.5659 44.2983C38.1617 43.058 35.6759 41.7761 33.7871 42.5745C31.9366 43.3568 31.123 45.9509 30.3373 48.4598C29.5973 50.8217 28.8318 53.2641 27.5012 53.2641C26.1595 53.2641 25.3657 50.8165 24.5979 48.4494C23.7884 45.9538 22.9517 43.373 21.1098 42.5942C20.701 42.4211 20.2656 42.3452 19.8099 42.3452C18.1573 42.3452 16.2407 43.3412 14.3733 44.3111C12.3699 45.3527 10.0978 46.5328 9.28363 45.7181C8.3456 44.7807 8.898 42.8629 9.4834 40.8322C10.074 38.7819 10.6849 36.662 9.94431 34.9105C9.22341 33.2075 7.33866 32.1531 5.51587 31.1334C3.57263 30.0466 1.7371 29.0194 1.7371 27.5012C1.7371 26.013 3.6398 25.0287 5.65483 23.9876C7.57375 22.9951 9.55867 21.9691 10.2883 20.2418C11.0387 18.4677 10.3363 16.2951 9.65653 14.1938C8.99296 12.1417 8.36587 10.2026 9.28421 9.28537C10.2419 8.32649 12.1365 8.80303 14.1423 9.30737C16.1365 9.80939 18.2002 10.3282 19.9251 9.59747C21.602 8.88873 22.6865 7.10531 23.7351 5.38037C24.8735 3.50778 25.9488 1.73884 27.5012 1.73884C29.0698 1.73884 30.1693 3.4742 31.3338 5.31089C32.3951 6.98487 33.4918 8.71618 35.1542 9.4197C36.8676 10.1441 38.9012 9.67216 40.8676 9.21531C42.8623 8.75266 44.7465 8.31491 45.717 9.28537C46.6116 10.1794 45.9127 12.0896 45.1732 14.1122C44.3997 16.2291 43.5989 18.4179 44.3609 20.2187C45.0962 21.9563 47.168 22.9893 49.172 23.9876C51.2757 25.0362 53.2629 26.0264 53.2629 27.5012C53.2617 28.987 51.2681 30.013 49.1576 31.0993Z" fill="#FF6F32"/>
</svg>
