<svg width="66" height="66" viewBox="0 0 66 66" fill="none" xmlns="http://www.w3.org/2000/svg">
<path d="M54.0395 14.5835C54.0375 14.5501 54.0342 14.5174 54.0296 14.4846C54.0244 14.4525 54.0185 14.4211 54.0106 14.3903C54.0028 14.3595 53.9936 14.3287 53.9825 14.2992C53.9713 14.2691 53.9595 14.2396 53.9451 14.2108C53.9314 14.1826 53.917 14.1558 53.9006 14.1296C53.8842 14.102 53.8665 14.0758 53.8475 14.0503C53.8285 14.0254 53.8089 14.0012 53.7879 13.9782C53.7669 13.9553 53.7453 13.933 53.7224 13.9121C53.6988 13.8904 53.6746 13.8701 53.6484 13.8511C53.6235 13.8328 53.5986 13.8151 53.5717 13.7994C53.5442 13.7824 53.516 13.7673 53.4872 13.7535C53.4584 13.7398 53.4296 13.7273 53.3994 13.7162C53.3693 13.7051 53.3392 13.6959 53.3077 13.688C53.2756 13.6795 53.2429 13.673 53.2095 13.6677C53.1924 13.6651 53.1767 13.6592 53.1597 13.6579C45.3537 12.877 39.2489 11.2897 32.943 5.80012C32.5336 5.44375 31.9119 5.48699 31.5569 5.89576C31.5339 5.92197 31.5169 5.95145 31.4973 5.97962C25.156 11.4509 19.8603 12.9072 12.3491 13.6572C11.8466 13.7077 11.4641 14.1302 11.4641 14.6353V37.6491C11.4641 37.7363 11.4758 37.8227 11.4988 37.9066C15.4837 52.6028 31.5549 59.5847 32.2369 59.8749C32.36 59.9273 32.491 59.9535 32.6214 59.9535C32.7504 59.9535 32.8808 59.928 33.002 59.8769C33.6925 59.5873 49.9478 52.6061 53.9327 37.9072C53.9464 37.8555 53.9569 37.8031 53.9622 37.7494L54.0395 36.9888C54.0427 36.9561 54.0447 36.9226 54.0447 36.8892V14.6359C54.0447 14.6169 54.0408 14.6006 54.0395 14.5835ZM52.0152 37.4677C48.576 49.9792 35.0799 56.7502 32.6234 57.8907C30.1884 56.7469 16.8882 49.991 13.4287 37.5155V15.519C20.5488 14.7309 26.0712 13.0991 32.3299 7.8453C38.5322 12.9897 44.7713 14.7067 52.0788 15.5157V36.8381L52.0152 37.4677Z" fill="#FF6F32"/>
<path d="M41.9256 26.7537H40.9823C40.4634 22.402 36.7249 19.0139 32.1982 19.0139C27.6716 19.0139 23.933 22.402 23.4148 26.7537H22.2736C21.7312 26.7537 21.291 27.1933 21.291 27.7363V42.1482C21.291 42.6913 21.7312 43.1309 22.2736 43.1309H41.9263C42.4687 43.1309 42.9089 42.6913 42.9089 42.1482V27.7363C42.9082 27.1933 42.468 26.7537 41.9256 26.7537ZM32.1976 20.9791C35.6381 20.9791 38.489 23.4894 38.9954 26.7537H25.3997C25.9068 23.4894 28.757 20.9791 32.1976 20.9791ZM40.943 28.719V41.1656H23.2556V28.719H40.943Z" fill="#FF6F32"/>
</svg>
