<svg width="33" height="24" viewBox="0 0 33 24" fill="none" xmlns="http://www.w3.org/2000/svg">
<path d="M28.3765 3.21745C28.2415 3.1167 28.071 3.04695 27.885 3.01639C27.699 2.98584 27.5053 2.99574 27.3265 3.04495L5.3265 9.04495C5.13677 9.09892 4.97342 9.19491 4.85816 9.32016C4.74289 9.44542 4.68115 9.59401 4.68115 9.7462C4.68115 9.89839 4.74289 10.047 4.85816 10.1722C4.97342 10.2975 5.13677 10.3935 5.3265 10.4474L13.9165 13.0199L20.2565 8.24995L21.6665 9.30745L15.2965 14.0849L18.7365 20.5275C18.8106 20.667 18.9389 20.7866 19.1047 20.8709C19.2705 20.9551 19.4662 21.0001 19.6665 20.9999C19.8686 20.9968 20.0647 20.9479 20.2289 20.8595C20.3931 20.7711 20.5178 20.6475 20.5865 20.5049L28.5865 4.00495C28.6546 3.87226 28.6711 3.72777 28.6339 3.58834C28.5967 3.44891 28.5074 3.32028 28.3765 3.21745Z" fill="white"/>
</svg>
