<svg width="24" height="14" viewBox="0 0 24 14" fill="none" xmlns="http://www.w3.org/2000/svg">
<path d="M23.8725 12.6435C23.8433 12.5796 23.8162 12.5262 23.791 12.4837C23.3744 11.7171 22.579 10.7757 21.4045 9.65994L21.3793 9.63455L21.3669 9.62148L21.3545 9.60916H21.3421C20.8089 9.08937 20.4715 8.74024 20.3301 8.561C20.0719 8.22082 20.0135 7.87579 20.1552 7.52665C20.2556 7.26265 20.6303 6.70478 21.28 5.85266C21.6215 5.40158 21.8921 5.03975 22.0922 4.76641C23.5332 2.8075 24.1577 1.55584 23.9663 1.01028L23.8911 0.882578C23.8411 0.805656 23.7118 0.735455 23.5036 0.671602C23.2955 0.607749 23.0289 0.597667 22.7042 0.639862L19.1057 0.666001C19.0224 0.657412 18.9391 0.659653 18.8555 0.671975C18.7722 0.685045 18.7182 0.69774 18.693 0.710436C18.6678 0.723506 18.6473 0.733961 18.6305 0.742176L18.5805 0.780637C18.5389 0.806029 18.4932 0.850838 18.4432 0.915065C18.3932 0.978918 18.3512 1.05323 18.3183 1.13874C17.9268 2.16935 17.4813 3.12752 16.9813 4.01362C16.6731 4.54162 16.3897 4.99979 16.1319 5.38702C15.8737 5.77499 15.6572 6.06028 15.4822 6.24287C15.3073 6.42584 15.1488 6.57334 15.0075 6.6835C14.8658 6.79477 14.7573 6.84107 14.6828 6.82427C14.6076 6.80747 14.5368 6.79029 14.4703 6.77274C14.3538 6.69619 14.2596 6.59201 14.1891 6.45982C14.1183 6.32801 14.0704 6.16184 14.0452 5.9617C14.0204 5.76155 14.0054 5.58903 14.0018 5.44415C13.9974 5.29927 13.9996 5.09501 14.008 4.83101C14.0164 4.56701 14.0204 4.38852 14.0204 4.29442C14.0204 3.97105 14.0266 3.61967 14.0394 3.24029C14.0518 2.86128 14.0624 2.56105 14.0704 2.33962C14.0788 2.11856 14.0828 1.88406 14.0828 1.63687C14.0828 1.39042 14.0682 1.19624 14.039 1.05547C14.0098 0.915065 13.966 0.779144 13.9079 0.646583C13.8495 0.51477 13.764 0.412456 13.6515 0.340387C13.5391 0.267946 13.3996 0.210441 13.233 0.167872C12.7912 0.065558 12.2291 0.0106668 11.5462 0.001705C9.99672 -0.014725 9.00121 0.0875892 8.55969 0.308648C8.38477 0.402747 8.22627 0.53008 8.08495 0.692139C7.93485 0.879591 7.91404 0.982279 8.0225 0.998335C8.52244 1.07526 8.87631 1.2586 9.08447 1.54799L9.1597 1.70109C9.21777 1.81237 9.2762 2.00803 9.33463 2.28884C9.39306 2.57002 9.43031 2.88069 9.44711 3.22162C9.48874 3.84334 9.48874 4.37545 9.44711 4.81869C9.40547 5.26193 9.36603 5.60658 9.32842 5.85303C9.2908 6.10023 9.23456 6.3 9.1597 6.45348C9.08447 6.60732 9.03481 6.70105 9.00961 6.73503C8.98441 6.76901 8.96396 6.79029 8.94716 6.79888C8.8387 6.84107 8.72659 6.86273 8.60972 6.86273C8.49286 6.86273 8.35153 6.80299 8.18464 6.6835C8.01812 6.56475 7.84502 6.40045 7.66607 6.19172C7.48676 5.98335 7.28518 5.69135 7.05986 5.31644C6.8349 4.94191 6.60154 4.49905 6.36015 3.98785L6.16039 3.61706C6.0355 3.37882 5.86459 3.03155 5.64803 2.57599C5.43147 2.12043 5.23975 1.67981 5.07322 1.25337C5.00639 1.07488 4.9067 0.93859 4.7734 0.84449L4.71095 0.806029C4.66932 0.772049 4.60249 0.735828 4.51083 0.69774C4.4188 0.659279 4.32349 0.631647 4.22342 0.61447L0.799767 0.639862C0.449914 0.639862 0.212541 0.721265 0.0876456 0.882952L0.0376146 0.959501C0.0124165 1.00244 0 1.07078 0 1.16413C0 1.25823 0.0251981 1.37286 0.0752292 1.50879C0.575175 2.71004 1.11858 3.86836 1.7058 4.98374C2.29339 6.09986 2.8032 6.99865 3.23668 7.67975C3.6698 8.3616 4.11131 9.00424 4.56123 9.60916C5.01114 10.2141 5.30877 10.6013 5.45448 10.7716C5.60019 10.9422 5.7145 11.0699 5.79812 11.1551L6.11036 11.462C6.31012 11.6663 6.6041 11.9112 6.9912 12.1965C7.37867 12.4822 7.8074 12.763 8.27813 13.0393C8.7485 13.3164 9.29665 13.5415 9.92112 13.7167C10.546 13.8914 11.154 13.9616 11.7452 13.9273H13.1823C13.4741 13.9019 13.6946 13.8085 13.8444 13.6461L13.8944 13.5822C13.9276 13.5315 13.959 13.4523 13.9882 13.3462C14.0171 13.2398 14.0321 13.1226 14.0321 12.9949C14.0233 12.6285 14.0507 12.2981 14.1131 12.0046C14.1756 11.7107 14.2464 11.4893 14.3257 11.3399C14.4049 11.1913 14.494 11.0655 14.5945 10.9631C14.6945 10.8608 14.765 10.7996 14.807 10.7779C14.8486 10.757 14.8822 10.7421 14.9071 10.7331C15.1068 10.6652 15.342 10.7313 15.613 10.931C15.8836 11.1316 16.1378 11.378 16.3751 11.6722C16.6125 11.9661 16.8977 12.2958 17.2311 12.6625C17.5642 13.0288 17.8556 13.3011 18.1058 13.4799L18.3559 13.6338C18.5224 13.7357 18.739 13.8294 19.0056 13.9149C19.2722 13.9997 19.5055 14.0214 19.7053 13.9788L22.904 13.9273C23.2206 13.9273 23.4664 13.8742 23.6413 13.7674C23.8162 13.6618 23.9203 13.5438 23.9536 13.4161C23.9868 13.2884 23.989 13.1442 23.9598 12.9818C23.9305 12.8201 23.9013 12.7073 23.8725 12.6435Z" fill="#FF6F32"/>
</svg>
